<mxfile host="Electron" modified="2024-11-08T11:25:10.074Z" agent="Mozilla/5.0 (X11; Linux x86_64) AppleWebKit/537.36 (KHTML, like Gecko) draw.io/23.1.5 Chrome/120.0.6099.109 Electron/28.1.0 Safari/537.36" version="23.1.5" etag="69KHtGd6yv-nsS2Oif6y" type="device">
  <diagram id="80t9Ax6jirF8QMyXpd1n" name="Page-1">
    <mxGraphModel dx="2924" dy="1203" grid="1" gridSize="10" guides="1" tooltips="1" connect="1" arrows="1" fold="1" page="1" pageScale="1" pageWidth="850" pageHeight="1100" background="#ffffff" math="0" shadow="0">
      <root>
        <mxCell id="0" />
        <mxCell id="1" parent="0" />
        <mxCell id="169" value="&lt;b style=&quot;&quot;&gt;&lt;font style=&quot;font-size: 20px;&quot; color=&quot;#000000&quot;&gt;Dependent Libs&lt;/font&gt;&lt;/b&gt;" style="rounded=0;whiteSpace=wrap;html=1;labelBackgroundColor=none;fillColor=#DFE1E5;strokeColor=none;fontSize=14;verticalAlign=top;" parent="1" vertex="1">
          <mxGeometry x="-540" y="740" width="660" height="100" as="geometry" />
        </mxCell>
        <mxCell id="106" value="&lt;b style=&quot;font-size: 12px; color: rgb(0, 0, 0);&quot;&gt;&lt;font style=&quot;font-size: 20px;&quot;&gt;ESP32_Display_Panel&lt;/font&gt;&lt;/b&gt;" style="rounded=0;whiteSpace=wrap;html=1;labelBackgroundColor=none;fillColor=#DFE1E5;strokeColor=none;fontSize=14;verticalAlign=top;" parent="1" vertex="1">
          <mxGeometry x="-540" y="340" width="660" height="380" as="geometry" />
        </mxCell>
        <mxCell id="141" value="&lt;span style=&quot;font-size: 18px;&quot;&gt;GUI&lt;/span&gt;" style="rounded=1;whiteSpace=wrap;html=1;verticalAlign=top;fillColor=#FFFFFF;strokeColor=none;fontColor=#000000;fontSize=14;gradientColor=none;arcSize=5;strokeWidth=2;movable=1;resizable=1;rotatable=1;deletable=1;editable=1;connectable=1;" parent="1" vertex="1">
          <mxGeometry x="-70" y="490" width="160" height="210" as="geometry" />
        </mxCell>
        <mxCell id="147" value="&lt;b&gt;&lt;font color=&quot;#ffffff&quot;&gt;lvgl&lt;/font&gt;&lt;/b&gt;" style="rounded=1;whiteSpace=wrap;html=1;verticalAlign=middle;fillColor=#4A4E5F;strokeColor=none;fontColor=#000000;fontSize=14;gradientColor=none;arcSize=5;strokeWidth=2;movable=1;resizable=1;rotatable=1;deletable=1;editable=1;connectable=1;" parent="1" vertex="1">
          <mxGeometry x="-60" y="530" width="140" height="30" as="geometry" />
        </mxCell>
        <mxCell id="165" value="&lt;b style=&quot;&quot;&gt;&lt;font style=&quot;font-size: 20px;&quot; color=&quot;#000000&quot;&gt;Platforms&lt;/font&gt;&lt;/b&gt;" style="rounded=0;whiteSpace=wrap;html=1;labelBackgroundColor=none;fillColor=#DFE1E5;strokeColor=none;fontSize=14;verticalAlign=top;" parent="1" vertex="1">
          <mxGeometry x="-540" y="860" width="660" height="140" as="geometry" />
        </mxCell>
        <mxCell id="166" value="&lt;span style=&quot;border-color: var(--border-color); color: rgb(255, 255, 255);&quot;&gt;&lt;font style=&quot;font-size: 14px;&quot;&gt;&lt;b&gt;ESP-IDF&lt;/b&gt;&lt;/font&gt;&lt;/span&gt;" style="rounded=1;whiteSpace=wrap;html=1;verticalAlign=middle;fillColor=#4A4E5F;strokeColor=none;fontColor=#000000;fontSize=14;gradientColor=none;arcSize=5;strokeWidth=2;movable=1;resizable=1;rotatable=1;deletable=1;editable=1;connectable=1;" parent="1" vertex="1">
          <mxGeometry x="-510" y="910" width="140" height="30" as="geometry" />
        </mxCell>
        <mxCell id="167" value="&lt;span style=&quot;border-color: var(--border-color); color: rgb(255, 255, 255);&quot;&gt;&lt;font style=&quot;font-size: 14px;&quot;&gt;&lt;b&gt;Arduino&lt;/b&gt;&lt;/font&gt;&lt;/span&gt;" style="rounded=1;whiteSpace=wrap;html=1;verticalAlign=middle;fillColor=#4A4E5F;strokeColor=none;fontColor=#000000;fontSize=14;gradientColor=none;arcSize=5;strokeWidth=2;movable=1;resizable=1;rotatable=1;deletable=1;editable=1;connectable=1;" parent="1" vertex="1">
          <mxGeometry x="-353" y="910" width="140" height="30" as="geometry" />
        </mxCell>
        <mxCell id="168" value="&lt;span style=&quot;border-color: var(--border-color); color: rgb(255, 255, 255);&quot;&gt;&lt;font style=&quot;font-size: 14px;&quot;&gt;&lt;b&gt;ESP SoCs&lt;/b&gt;&lt;/font&gt;&lt;/span&gt;" style="rounded=1;whiteSpace=wrap;html=1;verticalAlign=middle;fillColor=#4A4E5F;strokeColor=none;fontColor=#000000;fontSize=14;gradientColor=none;arcSize=5;strokeWidth=2;movable=1;resizable=1;rotatable=1;deletable=1;editable=1;connectable=1;" parent="1" vertex="1">
          <mxGeometry x="-510" y="950" width="610" height="30" as="geometry" />
        </mxCell>
        <mxCell id="170" value="&lt;b style=&quot;color: rgb(240, 240, 240);&quot;&gt;&lt;font style=&quot;font-size: 14px;&quot; color=&quot;#ffffff&quot;&gt;ESP32_IO_Expander&lt;/font&gt;&lt;/b&gt;" style="rounded=1;whiteSpace=wrap;html=1;verticalAlign=middle;fillColor=#4A4E5F;strokeColor=none;fontColor=#000000;fontSize=14;gradientColor=none;arcSize=5;strokeWidth=2;movable=1;resizable=1;rotatable=1;deletable=1;editable=1;connectable=1;" parent="1" vertex="1">
          <mxGeometry x="-510" y="790" width="190" height="30" as="geometry" />
        </mxCell>
        <mxCell id="171" value="&lt;span style=&quot;border-color: var(--border-color); color: rgb(255, 255, 255);&quot;&gt;&lt;font style=&quot;font-size: 14px;&quot;&gt;&lt;b&gt;PlatformIO&lt;/b&gt;&lt;/font&gt;&lt;/span&gt;" style="rounded=1;whiteSpace=wrap;html=1;verticalAlign=middle;fillColor=#4A4E5F;strokeColor=none;fontColor=#000000;fontSize=14;gradientColor=none;arcSize=5;strokeWidth=2;movable=1;resizable=1;rotatable=1;deletable=1;editable=1;connectable=1;" parent="1" vertex="1">
          <mxGeometry x="-197" y="910" width="140" height="30" as="geometry" />
        </mxCell>
        <mxCell id="152" value="&lt;span style=&quot;font-size: 18px;&quot;&gt;Bus&lt;/span&gt;" style="rounded=1;whiteSpace=wrap;html=1;verticalAlign=top;fillColor=#FFFFFF;strokeColor=none;fontColor=#000000;fontSize=14;gradientColor=none;arcSize=5;strokeWidth=2;movable=1;resizable=1;rotatable=1;deletable=1;editable=1;connectable=1;" parent="1" vertex="1">
          <mxGeometry x="-520" y="490" width="210" height="210" as="geometry" />
        </mxCell>
        <mxCell id="155" value="&lt;b&gt;&lt;font color=&quot;#ffffff&quot;&gt;SPI&lt;/font&gt;&lt;/b&gt;" style="rounded=1;whiteSpace=wrap;html=1;verticalAlign=middle;fillColor=#4A4E5F;strokeColor=none;fontColor=#000000;fontSize=14;gradientColor=none;arcSize=5;strokeWidth=2;movable=1;resizable=1;rotatable=1;deletable=1;editable=1;connectable=1;" parent="1" vertex="1">
          <mxGeometry x="-510" y="570" width="90" height="30" as="geometry" />
        </mxCell>
        <mxCell id="156" value="&lt;b&gt;&lt;font color=&quot;#ffffff&quot;&gt;3-wire SPI + RGB&lt;/font&gt;&lt;/b&gt;" style="rounded=1;whiteSpace=wrap;html=1;verticalAlign=middle;fillColor=#4A4E5F;strokeColor=none;fontColor=#000000;fontSize=14;gradientColor=none;arcSize=5;strokeWidth=2;movable=1;resizable=1;rotatable=1;deletable=1;editable=1;connectable=1;" parent="1" vertex="1">
          <mxGeometry x="-510" y="610" width="190" height="30" as="geometry" />
        </mxCell>
        <mxCell id="158" value="&lt;b&gt;&lt;font color=&quot;#ffffff&quot;&gt;I80&lt;/font&gt;&lt;/b&gt;" style="rounded=1;whiteSpace=wrap;html=1;verticalAlign=middle;fillColor=#DB1D1D;strokeColor=none;fontColor=#000000;fontSize=14;gradientColor=none;arcSize=5;strokeWidth=2;movable=1;resizable=1;rotatable=1;deletable=1;editable=1;connectable=1;" parent="1" vertex="1">
          <mxGeometry x="-410" y="570" width="90" height="30" as="geometry" />
        </mxCell>
        <mxCell id="160" value="&lt;b&gt;&lt;font color=&quot;#ffffff&quot;&gt;QSPI&lt;/font&gt;&lt;/b&gt;" style="rounded=1;whiteSpace=wrap;html=1;verticalAlign=middle;fillColor=#4A4E5F;strokeColor=none;fontColor=#000000;fontSize=14;gradientColor=none;arcSize=5;strokeWidth=2;movable=1;resizable=1;rotatable=1;deletable=1;editable=1;connectable=1;" parent="1" vertex="1">
          <mxGeometry x="-410" y="530" width="90" height="30" as="geometry" />
        </mxCell>
        <mxCell id="154" value="&lt;b&gt;&lt;font color=&quot;#ffffff&quot;&gt;I2C&lt;/font&gt;&lt;/b&gt;" style="rounded=1;whiteSpace=wrap;html=1;verticalAlign=middle;fillColor=#4A4E5F;strokeColor=none;fontColor=#000000;fontSize=14;gradientColor=none;arcSize=5;strokeWidth=2;movable=1;resizable=1;rotatable=1;deletable=1;editable=1;connectable=1;" parent="1" vertex="1">
          <mxGeometry x="-510" y="530" width="90" height="30" as="geometry" />
        </mxCell>
        <mxCell id="134" value="&lt;font style=&quot;font-size: 18px;&quot;&gt;Devices&lt;/font&gt;" style="rounded=1;whiteSpace=wrap;html=1;verticalAlign=top;fillColor=#FFFFFF;strokeColor=none;fontColor=#000000;fontSize=14;gradientColor=none;arcSize=5;strokeWidth=2;movable=1;resizable=1;rotatable=1;deletable=1;editable=1;connectable=1;" parent="1" vertex="1">
          <mxGeometry x="-300" y="490" width="220" height="210" as="geometry" />
        </mxCell>
        <mxCell id="96" value="&lt;b style=&quot;font-size: 14px;&quot;&gt;&lt;font color=&quot;#ffffff&quot;&gt;Bus&lt;/font&gt;&lt;/b&gt;" style="rounded=1;whiteSpace=wrap;html=1;verticalAlign=middle;fillColor=#4A4E5F;strokeColor=none;fontColor=#000000;fontSize=14;gradientColor=none;arcSize=5;strokeWidth=2;movable=1;resizable=1;rotatable=1;deletable=1;editable=1;connectable=1;" parent="1" vertex="1">
          <mxGeometry x="-285" y="610" width="90" height="30" as="geometry" />
        </mxCell>
        <mxCell id="135" value="&lt;b&gt;&lt;font color=&quot;#ffffff&quot;&gt;LCD&lt;/font&gt;&lt;/b&gt;" style="rounded=1;whiteSpace=wrap;html=1;verticalAlign=middle;fillColor=#4A4E5F;strokeColor=none;fontColor=#000000;fontSize=14;gradientColor=none;arcSize=5;strokeWidth=2;movable=1;resizable=1;rotatable=1;deletable=1;editable=1;connectable=1;" parent="1" vertex="1">
          <mxGeometry x="-285" y="530" width="90" height="30" as="geometry" />
        </mxCell>
        <mxCell id="137" value="&lt;b style=&quot;font-size: 14px;&quot;&gt;&lt;font color=&quot;#ffffff&quot;&gt;Backlight&lt;/font&gt;&lt;/b&gt;" style="rounded=1;whiteSpace=wrap;html=1;verticalAlign=middle;fillColor=#4A4E5F;strokeColor=none;fontColor=#000000;fontSize=14;gradientColor=none;arcSize=5;strokeWidth=2;movable=1;resizable=1;rotatable=1;deletable=1;editable=1;connectable=1;" parent="1" vertex="1">
          <mxGeometry x="-185" y="530" width="90" height="30" as="geometry" />
        </mxCell>
        <mxCell id="138" value="&lt;b&gt;&lt;font color=&quot;#ffffff&quot;&gt;Touch&lt;/font&gt;&lt;/b&gt;" style="rounded=1;whiteSpace=wrap;html=1;verticalAlign=middle;fillColor=#4A4E5F;strokeColor=none;fontColor=#000000;fontSize=14;gradientColor=none;arcSize=5;strokeWidth=2;movable=1;resizable=1;rotatable=1;deletable=1;editable=1;connectable=1;" parent="1" vertex="1">
          <mxGeometry x="-285" y="570" width="90" height="30" as="geometry" />
        </mxCell>
        <mxCell id="150" value="&lt;b&gt;&lt;font color=&quot;#ffffff&quot;&gt;Button&lt;/font&gt;&lt;/b&gt;" style="rounded=1;whiteSpace=wrap;html=1;verticalAlign=middle;fillColor=#DB1D1D;strokeColor=none;fontColor=#000000;fontSize=14;gradientColor=none;arcSize=5;strokeWidth=2;movable=1;resizable=1;rotatable=1;deletable=1;editable=1;connectable=1;" parent="1" vertex="1">
          <mxGeometry x="-185" y="570" width="90" height="30" as="geometry" />
        </mxCell>
        <mxCell id="151" value="&lt;b&gt;&lt;font color=&quot;#ffffff&quot;&gt;Knob&lt;/font&gt;&lt;/b&gt;" style="rounded=1;whiteSpace=wrap;html=1;verticalAlign=middle;fillColor=#DB1D1D;strokeColor=none;fontColor=#000000;fontSize=14;gradientColor=none;arcSize=5;strokeWidth=2;movable=1;resizable=1;rotatable=1;deletable=1;editable=1;connectable=1;" parent="1" vertex="1">
          <mxGeometry x="-185" y="610" width="90" height="30" as="geometry" />
        </mxCell>
        <mxCell id="174" value="&lt;b&gt;&lt;font color=&quot;#ffffff&quot;&gt;MIPI-DSI&lt;/font&gt;&lt;/b&gt;" style="rounded=1;whiteSpace=wrap;html=1;verticalAlign=middle;fillColor=#4A4E5F;strokeColor=none;fontColor=#000000;fontSize=14;gradientColor=none;arcSize=5;strokeWidth=2;movable=1;resizable=1;rotatable=1;deletable=1;editable=1;connectable=1;" parent="1" vertex="1">
          <mxGeometry x="-510" y="650" width="190" height="30" as="geometry" />
        </mxCell>
        <mxCell id="148" value="&lt;font style=&quot;font-size: 18px;&quot;&gt;Examples&lt;/font&gt;" style="rounded=1;whiteSpace=wrap;html=1;verticalAlign=top;fillColor=#FFFFFF;strokeColor=none;fontColor=#000000;fontSize=14;gradientColor=none;arcSize=8;strokeWidth=2;movable=1;resizable=1;rotatable=1;deletable=1;editable=1;connectable=1;" parent="1" vertex="1">
          <mxGeometry x="-520" y="390" width="610" height="80" as="geometry" />
        </mxCell>
        <mxCell id="149" value="&lt;b&gt;&lt;font color=&quot;#ffffff&quot;&gt;LCD&lt;/font&gt;&lt;/b&gt;" style="rounded=1;whiteSpace=wrap;html=1;verticalAlign=middle;fillColor=#4A4E5F;strokeColor=none;fontColor=#000000;fontSize=14;gradientColor=none;arcSize=5;strokeWidth=2;movable=1;resizable=1;rotatable=1;deletable=1;editable=1;connectable=1;" parent="1" vertex="1">
          <mxGeometry x="-500" y="430" width="90" height="30" as="geometry" />
        </mxCell>
        <mxCell id="161" value="&lt;font color=&quot;#ffffff&quot;&gt;&lt;b&gt;Touch&lt;/b&gt;&lt;/font&gt;" style="rounded=1;whiteSpace=wrap;html=1;verticalAlign=middle;fillColor=#4A4E5F;strokeColor=none;fontColor=#000000;fontSize=14;gradientColor=none;arcSize=5;strokeWidth=2;movable=1;resizable=1;rotatable=1;deletable=1;editable=1;connectable=1;" parent="1" vertex="1">
          <mxGeometry x="-380" y="430" width="90" height="30" as="geometry" />
        </mxCell>
        <mxCell id="164" value="&lt;font color=&quot;#ffffff&quot;&gt;&lt;b&gt;Squareline&lt;/b&gt;&lt;/font&gt;" style="rounded=1;whiteSpace=wrap;html=1;verticalAlign=middle;fillColor=#4A4E5F;strokeColor=none;fontColor=#000000;fontSize=14;gradientColor=none;arcSize=5;strokeWidth=2;movable=1;resizable=1;rotatable=1;deletable=1;editable=1;connectable=1;" parent="1" vertex="1">
          <mxGeometry x="-20" y="430" width="90" height="30" as="geometry" />
        </mxCell>
        <mxCell id="5CS5_83MEDOezN7YgZgK-164" value="&lt;font color=&quot;#ffffff&quot;&gt;&lt;b&gt;Panel&lt;/b&gt;&lt;/font&gt;" style="rounded=1;whiteSpace=wrap;html=1;verticalAlign=middle;fillColor=#4A4E5F;strokeColor=none;fontColor=#000000;fontSize=14;gradientColor=none;arcSize=5;strokeWidth=2;movable=1;resizable=1;rotatable=1;deletable=1;editable=1;connectable=1;" parent="1" vertex="1">
          <mxGeometry x="-260" y="430" width="90" height="30" as="geometry" />
        </mxCell>
        <mxCell id="162" value="&lt;font color=&quot;#ffffff&quot;&gt;&lt;b&gt;LVGL&lt;/b&gt;&lt;/font&gt;" style="rounded=1;whiteSpace=wrap;html=1;verticalAlign=middle;fillColor=#4A4E5F;strokeColor=none;fontColor=#000000;fontSize=14;gradientColor=none;arcSize=5;strokeWidth=2;movable=1;resizable=1;rotatable=1;deletable=1;editable=1;connectable=1;" parent="1" vertex="1">
          <mxGeometry x="-140" y="430" width="90" height="30" as="geometry" />
        </mxCell>
        <mxCell id="177" value="&lt;b&gt;&lt;font color=&quot;#ffffff&quot;&gt;IO Expander&lt;/font&gt;&lt;/b&gt;" style="rounded=1;whiteSpace=wrap;html=1;verticalAlign=middle;fillColor=#4A4E5F;strokeColor=none;fontColor=#000000;fontSize=14;gradientColor=none;arcSize=5;strokeWidth=2;movable=1;resizable=1;rotatable=1;deletable=1;editable=1;connectable=1;" parent="1" vertex="1">
          <mxGeometry x="-285" y="650" width="190" height="30" as="geometry" />
        </mxCell>
        <mxCell id="178" value="&lt;span style=&quot;color: rgb(255, 255, 255);&quot;&gt;&lt;font style=&quot;font-size: 14px;&quot;&gt;Next Plan&lt;/font&gt;&lt;/span&gt;" style="rounded=1;whiteSpace=wrap;html=1;verticalAlign=middle;fillColor=#DB1D1D;strokeColor=none;fontColor=#000000;fontSize=14;gradientColor=none;arcSize=5;strokeWidth=2;movable=1;resizable=1;rotatable=1;deletable=1;editable=1;connectable=1;" parent="1" vertex="1">
          <mxGeometry x="-30" y="290" width="150" height="30" as="geometry" />
        </mxCell>
        <mxCell id="179" value="&lt;span style=&quot;color: rgb(255, 255, 255);&quot;&gt;&lt;font style=&quot;font-size: 14px;&quot;&gt;Released&amp;nbsp;&lt;/font&gt;&lt;/span&gt;" style="rounded=1;whiteSpace=wrap;html=1;verticalAlign=middle;fillColor=#4A4E5F;strokeColor=none;fontColor=#000000;fontSize=14;gradientColor=none;arcSize=5;strokeWidth=2;movable=1;resizable=1;rotatable=1;deletable=1;editable=1;connectable=1;" parent="1" vertex="1">
          <mxGeometry x="-30" y="250" width="150" height="30" as="geometry" />
        </mxCell>
        <mxCell id="180" value="&lt;span style=&quot;border-color: var(--border-color); color: rgb(255, 255, 255);&quot;&gt;&lt;font style=&quot;font-size: 14px;&quot;&gt;&lt;b&gt;MicroPython&lt;/b&gt;&lt;/font&gt;&lt;/span&gt;" style="rounded=1;whiteSpace=wrap;html=1;verticalAlign=middle;fillColor=#DB1D1D;strokeColor=none;fontColor=#000000;fontSize=14;gradientColor=none;arcSize=5;strokeWidth=2;movable=1;resizable=1;rotatable=1;deletable=1;editable=1;connectable=1;" parent="1" vertex="1">
          <mxGeometry x="-40" y="910" width="140" height="30" as="geometry" />
        </mxCell>
      </root>
    </mxGraphModel>
  </diagram>
</mxfile>
